# xmcd
#
# Track frame offsets:
#	150
#	20678
#	38534
#	57204
#	74095
#	97020
#	111768
#	127553
#	144703
#	160474
#
# Disc length: 2425 seconds
# Revision: 0
# Processed by: cddbd v1.5.2PL0 Copyright (c) Steve Scherf et al.
# Submitted via: dBpowerAMP V12.0
#
DISCID=8909770a
DTITLE=Carter Sampson - Wilder Side
DYEAR=2015
DGENRE=Country
TTITLE0=Wilder Side
TTITLE1=Highway Rider
TTITLE2=Run Away
TTITLE3=Holy Mother
TTITLE4=Everything You Need
TTITLE5=Medicine River
TTITLE6=Take Me Home With You
TTITLE7=Wild Bird
TTITLE8=Tomorrow's Light
TTITLE9=See The Devil Run
EXTD=
EXTT0=
EXTT1=
EXTT2=
EXTT3=
EXTT4=
EXTT5=
EXTT6=
EXTT7=
EXTT8=
EXTT9=
PLAYORDER=
